<svg width="24" height="20" viewBox="0 0 24 20" fill="none" xmlns="http://www.w3.org/2000/svg">
<path d="M11.6664 1.80281e-08C9.41822 5.73189e-05 7.21797 0.649666 5.33029 1.87068C3.44261 3.09169 1.94793 4.8321 1.02603 6.88254C0.104136 8.93298 -0.205698 11.2061 0.133803 13.4285C0.473304 15.6509 1.44768 17.7278 2.93971 19.4095C3.04874 19.5321 3.18241 19.6304 3.33199 19.698C3.48157 19.7655 3.64371 19.8007 3.80783 19.8014C13.7666 19.8415 9.29641 19.8329 19.4963 19.8298C19.6604 19.8299 19.8227 19.7954 19.9725 19.7284C20.1223 19.6615 20.2563 19.5637 20.3656 19.4413C21.8663 17.7624 22.8489 15.685 23.1951 13.4599C23.5412 11.2348 23.2359 8.95704 22.3162 6.90157C21.3965 4.8461 19.9015 3.10073 18.0118 1.87609C16.122 0.651448 13.9182 -0.000125142 11.6664 1.80281e-08ZM17.0223 9.1077L14.983 10.601C15.0997 10.9444 15.1616 11.304 15.1664 11.6667C15.1696 12.4493 14.9115 13.2107 14.433 13.8301C13.9544 14.4494 13.2829 14.8913 12.5247 15.0857C11.7665 15.2801 10.9652 15.2158 10.2477 14.9031C9.53015 14.5904 8.93756 14.0472 8.56382 13.3595C8.19008 12.6718 8.05658 11.879 8.18449 11.1069C8.3124 10.3347 8.6944 9.62732 9.26993 9.09688C9.84546 8.56644 10.5816 8.24329 11.3616 8.17866C12.1416 8.11402 12.9209 8.31161 13.5759 8.74008L15.6438 7.22552C15.8937 7.04874 16.203 6.97726 16.5051 7.02647C16.8072 7.07568 17.0779 7.24166 17.2588 7.4886C17.4396 7.73554 17.5162 8.04367 17.472 8.34655C17.4277 8.64943 17.2662 8.92279 17.0223 9.1077Z" fill="#A5A5A5"/>
</svg>
