<svg width="36" height="36" viewBox="0 0 36 36" fill="none" xmlns="http://www.w3.org/2000/svg">
<rect width="36" height="36" rx="12" fill="#F6EEFF"/>
<path d="M24.2962 21.3368L22.2717 19.9223C22.0069 19.7377 21.6975 19.6403 21.3766 19.6403C20.8663 19.6403 20.3874 19.8906 20.0956 20.3093L19.6257 20.9828C18.838 20.4545 17.9591 19.7169 17.1212 18.8792C16.2835 18.0415 15.5461 17.1626 15.018 16.3749L15.6912 15.905C16.0343 15.666 16.2635 15.308 16.3363 14.8973C16.4089 14.4868 16.3174 14.0721 16.0781 13.7288L14.664 11.7042C14.3682 11.2813 13.8911 11.0286 13.3874 11.0286C13.2128 11.0286 13.0416 11.0594 12.8787 11.1195C12.6936 11.1879 12.5212 11.2718 12.3521 11.378L12.0726 11.5748C12.0027 11.6292 11.9377 11.6887 11.8754 11.7509C11.5344 12.0918 11.2924 12.5233 11.1558 13.0336C10.5731 15.218 12.0167 18.5212 14.748 21.2526C17.0417 23.5463 19.7973 24.9711 21.9392 24.9714H21.9393C22.3062 24.9714 22.6519 24.9287 22.9672 24.8445C23.4774 24.7081 23.9089 24.4661 24.2501 24.1249C24.3121 24.0629 24.3713 23.9979 24.4348 23.9158L24.6318 23.6348C24.728 23.481 24.8118 23.3085 24.8811 23.1221C25.1193 22.4781 24.8788 21.7439 24.2962 21.3368Z" fill="#6418C3"/>
</svg>
