<svg width="36" height="36" viewBox="0 0 36 36" fill="none" xmlns="http://www.w3.org/2000/svg">
<rect width="36" height="36" rx="12" fill="#F6EEFF"/>
<path d="M18 17.884L26.1307 13.4491C25.8721 12.5983 25.3476 11.8528 24.6341 11.322C23.9207 10.7912 23.0559 10.5031 22.1667 10.5H13.8333C12.9441 10.5031 12.0793 10.7912 11.3659 11.322C10.6524 11.8528 10.1279 12.5983 9.86932 13.4491L18 17.884Z" fill="#6418C3"/>
<path d="M18.3992 19.5649C18.2768 19.6317 18.1396 19.6666 18.0001 19.6666C17.8606 19.6666 17.7234 19.6317 17.6009 19.5649L9.66675 15.2372V21.3333C9.66805 22.438 10.1075 23.497 10.8886 24.2782C11.6697 25.0593 12.7287 25.4987 13.8334 25.5H22.1667C23.2714 25.4987 24.3305 25.0593 25.1116 24.2782C25.8927 23.497 26.3321 22.438 26.3334 21.3333V15.2372L18.3992 19.5649Z" fill="#6418C3"/>
</svg>
